<?xml version="1.0" encoding="utf-8"?>
<!-- Generator: Adobe Illustrator 23.0.0, SVG Export Plug-In . SVG Version: 6.00 Build 0)  -->
<svg version="1.1" id="Layer_1" xmlns="http://www.w3.org/2000/svg" xmlns:xlink="http://www.w3.org/1999/xlink" x="0px" y="0px"
	 viewBox="0 0 55.1 39.2" style="enable-background:new 0 0 55.1 39.2;" xml:space="preserve">
<g>
	<path d="M27.5,39.2c-8.5,0-16.9,0-25.4,0c-1.5,0-2.2-0.7-2.2-2.1C0,25.4,0,13.7,0,2c0-1.1,0.7-2,2-2c17,0,34,0,51,0
		c1.2,0,2.1,0.8,2.1,2c0,11.5,0,23,0,34.5c0,0.3,0,0.5,0,0.8c0,1.1-0.8,1.9-1.9,1.9c-3.9,0-7.7,0-11.6,0
		C36.9,39.2,32.2,39.2,27.5,39.2z M6.2,3.4c7.2,6.9,14.3,13.7,21.4,20.6C34.7,17.1,41.8,10.3,49,3.4C34.6,3.4,20.5,3.4,6.2,3.4z
		 M6.2,35.7c14.3,0,28.5,0,42.8,0c-4.7-4.7-9.3-9.3-14-14c-0.1,0.1-0.2,0.1-0.3,0.2c-2,1.9-3.9,3.7-5.8,5.6c-0.9,0.9-1.9,0.7-2.6,0
		c-1.9-1.9-3.8-3.7-5.7-5.5c-0.1-0.1-0.3-0.3-0.4-0.4C15.4,26.4,10.8,31,6.2,35.7z M3.6,33.1c4.6-4.7,9.2-9.3,13.8-13.9
		c-4.5-4.4-9.1-8.9-13.8-13.4C3.6,15,3.6,24,3.6,33.1z M51.5,33c0-9.1,0-18.1,0-27.3c-4.7,4.5-9.3,9-13.8,13.4
		C42.3,23.8,46.9,28.4,51.5,33z"/>
</g>
</svg>
